<?xml version="1.0" standalone="no"?>
<!DOCTYPE svg PUBLIC "-//W3C//DTD SVG 20010904//EN"
 "http://www.w3.org/TR/2001/REC-SVG-20010904/DTD/svg10.dtd">
<svg version="1.0" xmlns="http://www.w3.org/2000/svg"
 width="1080.000000pt" height="1080.000000pt" viewBox="0 0 1080.000000 1080.000000"
 preserveAspectRatio="xMidYMid meet">

<g transform="translate(0.000000,1080.000000) scale(0.100000,-0.100000)"
fill="#000000" stroke="none">
<path d="M5340 8719 c-216 -7 -329 -17 -495 -45 -49 -8 -139 -21 -200 -29
-302 -39 -726 -194 -990 -363 -577 -370 -934 -964 -1121 -1867 -26 -126 -34
-175 -59 -345 -61 -420 -92 -1143 -66 -1545 76 -1180 449 -1948 1170 -2410
189 -121 445 -230 711 -303 185 -51 483 -107 620 -116 41 -2 113 -9 160 -15
234 -28 717 -17 1000 24 627 89 1130 332 1503 724 370 390 596 893 697 1554
25 161 27 421 5 547 -84 481 -420 815 -885 880 -98 14 -289 14 -365 0 -33 -6
-189 -15 -346 -20 -285 -9 -414 -25 -437 -53 -6 -7 -15 -39 -22 -72 -46 -224
-221 -530 -620 -1080 -406 -560 -731 -915 -839 -915 -54 0 -38 134 48 395 16
50 98 272 181 495 238 635 279 763 282 892 3 126 -17 146 -247 238 -313 126
-378 170 -412 276 -15 48 -15 64 -5 127 20 115 121 307 256 487 61 82 243 307
266 330 3 3 43 48 89 100 234 264 894 942 960 985 83 55 121 39 121 -49 0
-109 -158 -530 -347 -924 -279 -582 -315 -692 -255 -769 9 -12 57 -37 107 -56
111 -43 176 -72 238 -110 46 -28 100 -46 202 -68 270 -58 359 -70 585 -76 191
-4 229 -3 338 16 68 12 160 33 205 48 549 173 824 714 717 1408 -26 175 -53
265 -132 455 -116 276 -274 477 -543 691 -261 207 -630 383 -950 454 -44 9
-102 23 -130 31 -27 7 -79 17 -115 23 -36 6 -108 17 -160 26 -125 21 -451 32
-720 24z"/>
</g>
</svg>
